# xmcd
#
# Track frame offsets:
#	150
#	15223
#	27350
#	43872
#	58562
#	72248
#	91505
#	109884
#	121805
#	140946
#	153089
#	172661
#	193102
#	209870
#	231665
#
# Disc length: 3325 seconds
#
# Revision: 1
# Processed by: cddbd v1.5.2PL0 Copyright (c) Steve Scherf et al.
# Submitted via: audiograbber 1.83.01
#
DISCID=cd0cfb0f
DTITLE=Isla Grant - Special To Me
DYEAR=2009
DGENRE=Country
TTITLE0=The Clock In The Tower
TTITLE1=Special To Me
TTITLE2=Lion In The Winter
TTITLE3=Yellow Roses
TTITLE4=Love All Over
TTITLE5=The Fields Of Athenry
TTITLE6=Young Love
TTITLE7=That Was Before I Met You
TTITLE8=It's Been A Long Time
TTITLE9=Take Me Back To Ireland
TTITLE10=After All These Years
TTITLE11=Hands Of Time
TTITLE12=Scotland, You Are In My Heart
TTITLE13=Why Do We Love
TTITLE14=Journey's End
EXTD=YEAR: 2009
EXTT0=
EXTT1=
EXTT2=
EXTT3=
EXTT4=
EXTT5=
EXTT6=
EXTT7=
EXTT8=
EXTT9=
EXTT10=
EXTT11=
EXTT12=
EXTT13=
EXTT14=
PLAYORDER=
